<?xml version="1.0" encoding="UTF-8" standalone="no"?>
<!DOCTYPE svg PUBLIC "-//W3C//DTD SVG 1.1//EN"
 "http://www.w3.org/Graphics/SVG/1.1/DTD/svg11.dtd">
<!-- Generated by graphviz version 2.38.0 (20140413.2041)
 -->
<!-- Title: undefined Pages: 1 -->
<svg width="384pt" height="353pt"
 viewBox="0.00 0.00 383.60 352.60" xmlns="http://www.w3.org/2000/svg" xmlns:xlink="http://www.w3.org/1999/xlink">
<g id="graph0" class="graph" transform="scale(1 1) rotate(0) translate(28.8 302.8)">
<title>undefined</title>
<polygon fill="white" stroke="none" points="-28.8,49.8 -28.8,-302.8 354.8,-302.8 354.8,49.8 -28.8,49.8"/>
<text text-anchor="start" x="9.5" y="12.6" font-family="Helvetica,sans-Serif" font-weight="bold" font-size="12.00">C:/Users/qabuild/.ipython/profile_default/history.sqlite</text>
<!-- sessions -->
<g id="node1" class="node"><title>sessions</title>
<path fill="none" stroke="black" d="M25.1449,-26.7963C25.1449,-26.7963 145.145,-26.7963 145.145,-26.7963 151.145,-26.7963 157.145,-32.7963 157.145,-38.7963 157.145,-38.7963 157.145,-135.796 157.145,-135.796 157.145,-141.796 151.145,-147.796 145.145,-147.796 145.145,-147.796 25.1449,-147.796 25.1449,-147.796 19.1449,-147.796 13.1449,-141.796 13.1449,-135.796 13.1449,-135.796 13.1449,-38.7963 13.1449,-38.7963 13.1449,-32.7963 19.1449,-26.7963 25.1449,-26.7963"/>
<text text-anchor="start" x="59.1449" y="-127.396" font-family="Helvetica,sans-Serif" font-weight="bold" font-size="13.00">sessions</text>
<polyline fill="none" stroke="black" points="13.1449,-117.796 157.145,-117.796 "/>
<text text-anchor="start" x="20.1449" y="-103.696" font-family="Helvetica,sans-Serif" font-size="12.00">session* </text>
<text text-anchor="start" x="69.1449" y="-103.696" font-family="Helvetica,sans-Serif" font-weight="bold" font-size="12.00">integer</text>
<text text-anchor="start" x="20.1449" y="-86.6963" font-family="Helvetica,sans-Serif" font-size="12.00">start </text>
<text text-anchor="start" x="46.1449" y="-86.6963" font-family="Helvetica,sans-Serif" font-weight="bold" font-size="12.00">timestamp</text>
<text text-anchor="start" x="20.1449" y="-69.6963" font-family="Helvetica,sans-Serif" font-size="12.00">end </text>
<text text-anchor="start" x="43.1449" y="-69.6963" font-family="Helvetica,sans-Serif" font-weight="bold" font-size="12.00">timestamp</text>
<text text-anchor="start" x="20.1449" y="-52.6963" font-family="Helvetica,sans-Serif" font-size="12.00">num_cmds </text>
<text text-anchor="start" x="81.1449" y="-52.6963" font-family="Helvetica,sans-Serif" font-weight="bold" font-size="12.00">integer</text>
<text text-anchor="start" x="20.1449" y="-35.6963" font-family="Helvetica,sans-Serif" font-size="12.00">remark </text>
<text text-anchor="start" x="60.1449" y="-35.6963" font-family="Helvetica,sans-Serif" font-weight="bold" font-size="12.00">text</text>
</g>
<!-- sqlite_sequence -->
<g id="node2" class="node"><title>sqlite_sequence</title>
<path fill="none" stroke="black" d="M12.1449,-182.296C12.1449,-182.296 132.145,-182.296 132.145,-182.296 138.145,-182.296 144.145,-188.296 144.145,-194.296 144.145,-194.296 144.145,-240.296 144.145,-240.296 144.145,-246.296 138.145,-252.296 132.145,-252.296 132.145,-252.296 12.1449,-252.296 12.1449,-252.296 6.14487,-252.296 0.144865,-246.296 0.144865,-240.296 0.144865,-240.296 0.144865,-194.296 0.144865,-194.296 0.144865,-188.296 6.14487,-182.296 12.1449,-182.296"/>
<text text-anchor="start" x="25.1449" y="-231.896" font-family="Helvetica,sans-Serif" font-weight="bold" font-size="13.00">sqlite_sequence</text>
<polyline fill="none" stroke="black" points="0.144865,-222.296 144.145,-222.296 "/>
<text text-anchor="start" x="7.14487" y="-208.696" font-family="Helvetica,sans-Serif" font-size="12.00">name </text>
<text text-anchor="start" x="40.1449" y="-208.696" font-family="Helvetica,sans-Serif" font-weight="bold" font-size="12.00"> </text>
<text text-anchor="start" x="7.14487" y="-191.696" font-family="Helvetica,sans-Serif" font-size="12.00">seq </text>
<text text-anchor="start" x="30.1449" y="-191.696" font-family="Helvetica,sans-Serif" font-weight="bold" font-size="12.00"> </text>
</g>
<!-- history -->
<g id="node3" class="node"><title>history</title>
<path fill="none" stroke="black" d="M181.145,-169.296C181.145,-169.296 301.145,-169.296 301.145,-169.296 307.145,-169.296 313.145,-175.296 313.145,-181.296 313.145,-181.296 313.145,-261.296 313.145,-261.296 313.145,-267.296 307.145,-273.296 301.145,-273.296 301.145,-273.296 181.145,-273.296 181.145,-273.296 175.145,-273.296 169.145,-267.296 169.145,-261.296 169.145,-261.296 169.145,-181.296 169.145,-181.296 169.145,-175.296 175.145,-169.296 181.145,-169.296"/>
<text text-anchor="start" x="220.145" y="-252.896" font-family="Helvetica,sans-Serif" font-weight="bold" font-size="13.00">history</text>
<polyline fill="none" stroke="black" points="169.145,-243.296 313.145,-243.296 "/>
<text text-anchor="start" x="176.145" y="-229.696" font-family="Helvetica,sans-Serif" font-size="12.00">session* </text>
<text text-anchor="start" x="225.145" y="-229.696" font-family="Helvetica,sans-Serif" font-weight="bold" font-size="12.00">integer</text>
<text text-anchor="start" x="176.145" y="-212.696" font-family="Helvetica,sans-Serif" font-size="12.00">line* </text>
<text text-anchor="start" x="202.145" y="-212.696" font-family="Helvetica,sans-Serif" font-weight="bold" font-size="12.00">integer</text>
<text text-anchor="start" x="176.145" y="-195.696" font-family="Helvetica,sans-Serif" font-size="12.00">source </text>
<text text-anchor="start" x="215.145" y="-195.696" font-family="Helvetica,sans-Serif" font-weight="bold" font-size="12.00">text</text>
<text text-anchor="start" x="176.145" y="-178.696" font-family="Helvetica,sans-Serif" font-size="12.00">source_raw </text>
<text text-anchor="start" x="240.145" y="-178.696" font-family="Helvetica,sans-Serif" font-weight="bold" font-size="12.00">text</text>
</g>
<!-- output_history -->
<g id="node4" class="node"><title>output_history</title>
<path fill="none" stroke="black" d="M194.145,-0.796263C194.145,-0.796263 314.145,-0.796263 314.145,-0.796263 320.145,-0.796263 326.145,-6.79626 326.145,-12.7963 326.145,-12.7963 326.145,-75.7963 326.145,-75.7963 326.145,-81.7963 320.145,-87.7963 314.145,-87.7963 314.145,-87.7963 194.145,-87.7963 194.145,-87.7963 188.145,-87.7963 182.145,-81.7963 182.145,-75.7963 182.145,-75.7963 182.145,-12.7963 182.145,-12.7963 182.145,-6.79626 188.145,-0.796263 194.145,-0.796263"/>
<text text-anchor="start" x="210.145" y="-67.3963" font-family="Helvetica,sans-Serif" font-weight="bold" font-size="13.00">output_history</text>
<polyline fill="none" stroke="black" points="182.145,-57.7963 326.145,-57.7963 "/>
<text text-anchor="start" x="189.145" y="-43.6963" font-family="Helvetica,sans-Serif" font-size="12.00">session* </text>
<text text-anchor="start" x="238.145" y="-43.6963" font-family="Helvetica,sans-Serif" font-weight="bold" font-size="12.00">integer</text>
<text text-anchor="start" x="189.145" y="-26.6963" font-family="Helvetica,sans-Serif" font-size="12.00">line* </text>
<text text-anchor="start" x="215.145" y="-26.6963" font-family="Helvetica,sans-Serif" font-weight="bold" font-size="12.00">integer</text>
<text text-anchor="start" x="189.145" y="-9.69626" font-family="Helvetica,sans-Serif" font-size="12.00">output </text>
<text text-anchor="start" x="224.145" y="-9.69626" font-family="Helvetica,sans-Serif" font-weight="bold" font-size="12.00">text</text>
</g>
</g>
</svg>
