<?xml version="1.0" encoding="UTF-8" standalone="no"?>
<!DOCTYPE svg PUBLIC "-//W3C//DTD SVG 1.1//EN"
 "http://www.w3.org/Graphics/SVG/1.1/DTD/svg11.dtd">
<!-- Generated by graphviz version 2.38.0 (20140413.2041)
 -->
<!-- Title: undefined Pages: 1 -->
<svg width="529pt" height="354pt"
 viewBox="0.00 0.00 528.60 353.60" xmlns="http://www.w3.org/2000/svg" xmlns:xlink="http://www.w3.org/1999/xlink">
<g id="graph0" class="graph" transform="scale(1 1) rotate(0) translate(28.8 324.8)">
<title>undefined</title>
<polygon fill="white" stroke="none" points="-28.8,28.8 -28.8,-324.8 499.8,-324.8 499.8,28.8 -28.8,28.8"/>
<text text-anchor="start" x="8" y="-8.4" font-family="Helvetica,sans-Serif" font-weight="bold" font-size="12.00">D:/Tor Browser/Browser/TorBrowser/Data/Browser/profile.default/cookies.sqlite</text>
<!-- moz_cookies -->
<g id="node1" class="node"><title>moz_cookies</title>
<path fill="none" stroke="black" d="M171,-21.5C171,-21.5 300,-21.5 300,-21.5 306,-21.5 312,-27.5 312,-33.5 312,-33.5 312,-283.5 312,-283.5 312,-289.5 306,-295.5 300,-295.5 300,-295.5 171,-295.5 171,-295.5 165,-295.5 159,-289.5 159,-283.5 159,-283.5 159,-33.5 159,-33.5 159,-27.5 165,-21.5 171,-21.5"/>
<text text-anchor="start" x="197.5" y="-275.1" font-family="Helvetica,sans-Serif" font-weight="bold" font-size="13.00">moz_cookies</text>
<polyline fill="none" stroke="black" points="159,-265.5 312,-265.5 "/>
<text text-anchor="start" x="166.5" y="-251.9" font-family="Helvetica,sans-Serif" font-size="12.00">id* </text>
<text text-anchor="start" x="184.5" y="-251.9" font-family="Helvetica,sans-Serif" font-weight="bold" font-size="12.00">integer</text>
<text text-anchor="start" x="166.5" y="-234.9" font-family="Helvetica,sans-Serif" font-size="12.00">baseDomain </text>
<text text-anchor="start" x="237.5" y="-234.9" font-family="Helvetica,sans-Serif" font-weight="bold" font-size="12.00">text</text>
<text text-anchor="start" x="166.5" y="-217.9" font-family="Helvetica,sans-Serif" font-size="12.00">originAttributes </text>
<text text-anchor="start" x="248.5" y="-217.9" font-family="Helvetica,sans-Serif" font-weight="bold" font-size="12.00">text</text>
<text text-anchor="start" x="166.5" y="-200.9" font-family="Helvetica,sans-Serif" font-size="12.00">name </text>
<text text-anchor="start" x="199.5" y="-200.9" font-family="Helvetica,sans-Serif" font-weight="bold" font-size="12.00">text</text>
<text text-anchor="start" x="166.5" y="-183.9" font-family="Helvetica,sans-Serif" font-size="12.00">value </text>
<text text-anchor="start" x="197.5" y="-183.9" font-family="Helvetica,sans-Serif" font-weight="bold" font-size="12.00">text</text>
<text text-anchor="start" x="166.5" y="-166.9" font-family="Helvetica,sans-Serif" font-size="12.00">host </text>
<text text-anchor="start" x="191.5" y="-166.9" font-family="Helvetica,sans-Serif" font-weight="bold" font-size="12.00">text</text>
<text text-anchor="start" x="166.5" y="-149.9" font-family="Helvetica,sans-Serif" font-size="12.00">path </text>
<text text-anchor="start" x="192.5" y="-149.9" font-family="Helvetica,sans-Serif" font-weight="bold" font-size="12.00">text</text>
<text text-anchor="start" x="166.5" y="-132.9" font-family="Helvetica,sans-Serif" font-size="12.00">expiry </text>
<text text-anchor="start" x="200.5" y="-132.9" font-family="Helvetica,sans-Serif" font-weight="bold" font-size="12.00">integer</text>
<text text-anchor="start" x="166.5" y="-115.9" font-family="Helvetica,sans-Serif" font-size="12.00">lastAccessed </text>
<text text-anchor="start" x="240.5" y="-115.9" font-family="Helvetica,sans-Serif" font-weight="bold" font-size="12.00">integer</text>
<text text-anchor="start" x="166.5" y="-98.9" font-family="Helvetica,sans-Serif" font-size="12.00">creationTime </text>
<text text-anchor="start" x="238.5" y="-98.9" font-family="Helvetica,sans-Serif" font-weight="bold" font-size="12.00">integer</text>
<text text-anchor="start" x="166.5" y="-81.9" font-family="Helvetica,sans-Serif" font-size="12.00">isSecure </text>
<text text-anchor="start" x="216.5" y="-81.9" font-family="Helvetica,sans-Serif" font-weight="bold" font-size="12.00">integer</text>
<text text-anchor="start" x="166.5" y="-64.9" font-family="Helvetica,sans-Serif" font-size="12.00">isHttpOnly </text>
<text text-anchor="start" x="222.5" y="-64.9" font-family="Helvetica,sans-Serif" font-weight="bold" font-size="12.00">integer</text>
<text text-anchor="start" x="166.5" y="-47.9" font-family="Helvetica,sans-Serif" font-size="12.00">appId </text>
<text text-anchor="start" x="199.5" y="-47.9" font-family="Helvetica,sans-Serif" font-weight="bold" font-size="12.00">integer</text>
<text text-anchor="start" x="166.5" y="-30.9" font-family="Helvetica,sans-Serif" font-size="12.00">inBrowserElement </text>
<text text-anchor="start" x="265.5" y="-30.9" font-family="Helvetica,sans-Serif" font-weight="bold" font-size="12.00">integer</text>
</g>
</g>
</svg>
